# xmcd
#
# Track frame offsets:
#	150
#	11545
#	20900
#	32017
#	42092
#	51497
#	63915
#	75000
#	85810
#	104785
#	116420
#	127807
#	139432
#	150462
#	158772
#
# Disc length: 2273 seconds
#
# Revision: 0
# Processed by: cddbd v1.5.2PL0 Copyright (c) Steve Scherf et al.
# Submitted via: audiograbber 1.83.01
#
DISCID=b808df0f
DTITLE=Elvis Presley  - 1954-58 Country
DYEAR=1988
DGENRE=Country
TTITLE0=I Forgot To Remember To Forget
TTITLE1=When It Rains, It Really Pours
TTITLE2=I´m Counting On You
TTITLE3=You´re A Heartbreaker
TTITLE4=Blue Moon Of Kentucky
TTITLE5=I Love You Because
TTITLE6=How´s The World Treading You
TTITLE7=When My Blue Moon Turns To Gold Again
TTITLE8=Old Shep
TTITLE9=Have I Told You Lately That I Love You
TTITLE10=It Is So Strange
TTITLE11=Trying To Get To You
TTITLE12=Your Cheatin´ Heart
TTITLE13=When It Rains, It Really Pours (Second Version)
TTITLE14=A Fool Such As I
EXTD=Compilation 1988-BMG France/ Editions Atlas,Paris
EXTT0=
EXTT1=
EXTT2=
EXTT3=
EXTT4=
EXTT5=
EXTT6=
EXTT7=
EXTT8=
EXTT9=
EXTT10=
EXTT11=
EXTT12=
EXTT13=
EXTT14=
PLAYORDER=
